<svg xmlns="http://www.w3.org/2000/svg" version="1.1" xmlns:xlink="http://www.w3.org/1999/xlink" xmlns:svgjs="http://svgjs.dev/svgjs" width="1500" height="1500" viewBox="0 0 1500 1500"><rect width="1500" height="1500" fill="#ffffff"></rect><g transform="matrix(0.6666666666666666,0,0,0.6666666666666666,249.39436519522388,442.8134623739818)"><svg viewBox="0 0 396 243" data-background-color="#ffffff" preserveAspectRatio="xMidYMid meet" height="920" width="1500" xmlns="http://www.w3.org/2000/svg" xmlns:xlink="http://www.w3.org/1999/xlink"><g id="tight-bounds" transform="matrix(1,0,0,1,0.24008861730862918,0.20597061378660442)"><svg viewBox="0 0 395.52 242.5880587724268" height="242.5880587724268" width="395.52"><g><svg viewBox="0 0 395.52 242.5880587724268" height="242.5880587724268" width="395.52"><g><svg viewBox="0 0 395.52 242.5880587724268" height="242.5880587724268" width="395.52"><g id="textblocktransform"><svg viewBox="0 0 395.52 242.5880587724268" height="242.5880587724268" width="395.52" id="textblock"><g><svg viewBox="0 0 395.52 242.5880587724268" height="242.5880587724268" width="395.52"><path d="M394.594 52.03C392.735 26.85 387.435 19.85 387.435 19.85 371.165-6.086 350.86-0.496 332.619 3.231 300.414 3.382 268.339 8.921 236.208 11.893 168.767 12.346 100.749 4.892 33.643 23.274 27.339 28.915-6.54 24.382 1.121 55.254 3.129 68.096 10.456 82.348 10.232 94.132 11.236 96.197 12.631 91.463 13.226 94.435 15.309 102.442 18.711 98.665 21.501 103.399 17.614 116.039 20.403 126.565 23.062 137.594 18.377 140.465 12.371 139.105 9.675 148.623 9.396 155.523 7.89 154.213 6.235 153.911 5.026 153.71 2.59 154.465 2.999 156.631 4.394 164.034-1.594 168.314 2.162 175.566-0.422 183.423 3.948 190.221 3.353 198.732 3.278 200.445 3.687 201.905 4.338 202.308 7.22 204.474 3.018 208.704 3.464 213.287 33.029 244.611 65.104 222.956 95.394 237.359 103.259 227.287 97.346 240.935 100.489 238.82 102.943 236.352 104.728 246.575 107.499 240.784 107.927 239.122 107.276 235.194 108.8 235.949 109.6 236.352 110.307 236.251 110.418 233.935 110.586 230.46 109.117 232.625 108.726 230.812 112.947 221.647 111.906 243.453 115.866 242.547 115.68 239.877 114.528 236.05 116.889 236.554 119.232 232.726 119.306 229.553 121.389 238.165 121.463 240.029 121.835 241.338 122.43 242.244 128.938 232.877 135.409 245.568 142.233 241.338 146.417 236.705 150.433 243.856 154.672 242.093 156.16 240.683 157.666 238.165 159.098 242.395 176.632 243.302 195.319 239.525 211.943 242.547 256.364 236.906 303.836 244.863 350.674 237.41 361.719 234.539 373.192 230.46 383.958 227.186 383.958 227.186 392.679 218.222 392.679 177.933S394.538 142.68 394.817 110.6C395.096 78.52 396.398 77.211 394.538 52.03Z" opacity="1" fill="#ff5858" data-fill-palette-color="tertiary"></path><g transform="matrix(1,0,0,1,55.76832,26.230666666666668)"><svg width="283.98335999999995" viewBox="3 -35.25 52.95 35.45" height="190.12672543909346" data-palette-color="#ffffff"><path d="M10.65-16.55L10.65-16.55 10.65-20.25Q13.15-20.25 14.55-21.75 15.95-23.25 15.95-25.95L15.95-25.95 20.5-25.95Q20.5-23.25 19.23-21.13 17.95-19 15.7-17.78 13.45-16.55 10.65-16.55ZM11.15 0L6.3 0 6.3-3.95 11.15-3.95 11.15 0ZM11.15-16.3L6.3-16.3 6.3-20.25 11.15-20.25 11.15-16.3ZM21-9.35L16.45-9.35 16.45-10.55 21-10.55 21-9.35ZM21-10.5L16.45-10.5Q16.45-13.25 15.05-14.78 13.65-16.3 11.15-16.3L11.15-16.3 11.15-20Q13.95-20 16.2-18.75 18.45-17.5 19.73-15.35 21-13.2 21-10.5L21-10.5ZM10.65-31.3L6.3-31.3 6.3-35.25 10.65-35.25 10.65-31.3ZM20.5-25.9L20.5-25.9 15.95-25.9Q15.95-28.5 14.55-29.9 13.15-31.3 10.65-31.3L10.65-31.3 10.65-35.25Q13.55-35.25 15.78-34.08 18-32.9 19.25-30.78 20.5-28.65 20.5-25.9ZM16.45-9.4L21-9.4Q21-6.6 19.75-4.5 18.5-2.4 16.28-1.2 14.05 0 11.15 0L11.15 0 11.15-3.95Q13.65-3.95 15.05-5.38 16.45-6.8 16.45-9.4L16.45-9.4ZM7.55 0L3 0 3-35.25 7.55-35.25 7.55 0ZM28.7 0.2L28.7 0.2Q27.45 0.2 26.6-0.65 25.75-1.5 25.75-2.75L25.75-2.75Q25.75-4 26.6-4.88 27.45-5.75 28.7-5.75L28.7-5.75Q29.95-5.75 30.82-4.88 31.7-4 31.7-2.75L31.7-2.75Q31.7-1.5 30.82-0.65 29.95 0.2 28.7 0.2ZM55.95-31.3L35.2-31.3 35.2-35.25 55.95-35.25 55.95-31.3ZM47.84 0L43.3 0 43.3-35.25 47.84-35.25 47.84 0Z" opacity="1" transform="matrix(1,0,0,1,0,0)" fill="#ffffff" class="wordmark-text-0" data-fill-palette-color="quaternary" id="text-0"></path></svg></g></svg></g></svg></g></svg></g><g></g></svg></g><defs></defs></svg><rect width="395.52" height="242.5880587724268" fill="none" stroke="none" visibility="hidden"></rect></g></svg></g></svg>